<svg xmlns="http://www.w3.org/2000/svg" viewBox="0 0 32 32" width="32" height="32">
  <defs>
    <mask id="gear-mask-fav">
      <rect x="0" y="0" width="32" height="32" fill="white" />
      <circle cx="16" cy="16" r="7.5" fill="black" />
    </mask>
  </defs>
  <!-- Gear Ring -->
  <g mask="url(#gear-mask-fav)" fill="#00236F">
    <rect x="14" y="2" width="4" height="28" rx="1" transform="rotate(0 16 16)" />
    <rect x="14" y="2" width="4" height="28" rx="1" transform="rotate(45 16 16)" />
    <rect x="14" y="2" width="4" height="28" rx="1" transform="rotate(90 16 16)" />
    <rect x="14" y="2" width="4" height="28" rx="1" transform="rotate(135 16 16)" />
    <circle cx="16" cy="16" r="11" />
  </g>
  <!-- Book Cover -->
  <path d="M 9.5,13.5 C 9.5,13.5 11.5,12.2 16,13.8 C 20.5,12.2 22.5,13.5 22.5,13.5 L 22.5,21.5 C 22.5,21.5 20.5,20.2 16,21.8 C 11.5,20.2 9.5,21.5 9.5,21.5 Z" fill="#00236F" />
  <!-- Book Pages -->
  <path d="M 10.5,14.5 C 10.5,14.5 12.2,13.5 16,14.8 C 19.8,13.5 21.5,14.5 21.5,14.5 L 21.5,20.5 C 21.5,20.5 19.8,19.5 16,20.8 C 12.2,19.5 10.5,20.5 10.5,20.5 Z" fill="#505F76" />
  <!-- Center divider -->
  <line x1="16" y1="14.8" x2="16" y2="20.8" stroke="#00236F" stroke-width="1.2" stroke-linecap="round" />
</svg>
